<svg width="43" height="43" viewBox="0 0 43 43" fill="none" xmlns="http://www.w3.org/2000/svg">
<g id="UI/Help/ControlArrows/KeyDown" clip-path="url(#clip0_1_6773)">
<rect id="Rectangle" x="41.7632" y="41.7632" width="40.7632" height="40.7632" rx="9" transform="rotate(-180 41.7632 41.7632)" stroke="#212121" stroke-width="2"/>
<path id="Triangle" d="M21.1619 25.4899L16.9353 17.0367C16.7134 16.593 16.8036 16.3905 16.8306 16.3468C16.8579 16.3028 16.9996 16.1316 17.4958 16.1316H25.3915C25.8881 16.1316 26.0295 16.303 26.0566 16.3468C26.0837 16.3907 26.1736 16.5936 25.952 17.0367L21.7254 25.4899C21.6107 25.7193 21.5057 25.8362 21.4437 25.8877C21.3817 25.8362 21.2766 25.7192 21.1619 25.4899ZM21.4005 25.9176C21.4005 25.9175 21.401 25.9173 21.4018 25.917L21.4005 25.9176ZM21.4855 25.917C21.4864 25.9173 21.4869 25.9175 21.4869 25.9175L21.4855 25.917Z" stroke="#212121" stroke-width="2"/>
</g>
<defs>
<clipPath id="clip0_1_6773">
<rect width="43" height="43" fill="white"/>
</clipPath>
</defs>
</svg>
