<svg width="43" height="43" viewBox="0 0 43 43" fill="none" xmlns="http://www.w3.org/2000/svg">
<g id="UI/Help/ControlArrows/KeyLeft" clip-path="url(#clip0_1_6767)">
<rect id="Rectangle" x="1" y="41.7632" width="40.7632" height="40.7632" rx="9" transform="rotate(-90 1 41.7632)" stroke="#212121" stroke-width="2"/>
<path id="Triangle" d="M17.8685 21.8198L26.3216 17.5933C26.7654 17.3714 26.9679 17.4616 27.0116 17.4886C27.0556 17.5158 27.2268 17.6575 27.2268 18.1537V26.0495C27.2268 26.5461 27.0554 26.6874 27.0116 26.7145C26.9677 26.7417 26.7648 26.8315 26.3216 26.6099L17.8685 22.3834C17.6391 22.2687 17.5221 22.1636 17.4707 22.1016C17.5222 22.0396 17.6391 21.9345 17.8685 21.8198ZM17.4408 22.0585C17.4409 22.0585 17.4411 22.0589 17.4414 22.0598L17.4408 22.0585ZM17.4414 22.1435C17.4411 22.1444 17.4409 22.1448 17.4408 22.1448L17.4414 22.1435Z" stroke="#212121" stroke-width="2"/>
</g>
<defs>
<clipPath id="clip0_1_6767">
<rect width="43" height="43" fill="white"/>
</clipPath>
</defs>
</svg>
