<svg width="43" height="43" viewBox="0 0 43 43" fill="none" xmlns="http://www.w3.org/2000/svg">
<g id="UI/Help/ControlArrows/KeyRight" clip-path="url(#clip0_1_6776)">
<rect id="Rectangle" x="41.7632" y="1" width="40.7632" height="40.7632" rx="9" transform="rotate(90 41.7632 1)" stroke="#212121" stroke-width="2"/>
<path id="Triangle" d="M25.4899 22.3833L17.0367 26.6098C16.593 26.8317 16.3905 26.7415 16.3468 26.7145C16.3028 26.6873 16.1316 26.5456 16.1316 26.0494V18.1536C16.1316 17.657 16.303 17.5157 16.3468 17.4886C16.3907 17.4614 16.5936 17.3716 17.0367 17.5932L25.4899 21.8198C25.7193 21.9345 25.8362 22.0395 25.8877 22.1015C25.8362 22.1635 25.7192 22.2686 25.4899 22.3833ZM25.9176 22.1446C25.9175 22.1446 25.9173 22.1442 25.917 22.1433L25.9176 22.1446ZM25.917 22.0596C25.9173 22.0587 25.9175 22.0583 25.9175 22.0583L25.917 22.0596Z" stroke="#212121" stroke-width="2"/>
</g>
<defs>
<clipPath id="clip0_1_6776">
<rect width="43" height="43" fill="white"/>
</clipPath>
</defs>
</svg>
