<svg width="43" height="43" viewBox="0 0 43 43" fill="none" xmlns="http://www.w3.org/2000/svg">
<g id="UI/Help/ControlArrows/KeyUp" clip-path="url(#clip0_1_6770)">
<rect id="Rectangle" x="41.7632" y="42" width="40.7632" height="40.7632" rx="9" transform="rotate(-180 41.7632 42)" stroke="#212121" stroke-width="2"/>
<path id="Triangle" d="M21.7254 16.7895L25.952 25.2427C26.1739 25.6864 26.0837 25.889 26.0567 25.9326C26.0295 25.9766 25.8878 26.1478 25.3916 26.1478L17.4958 26.1478C16.9992 26.1478 16.8579 25.9764 16.8308 25.9326C16.8036 25.8887 16.7138 25.6858 16.9353 25.2427L21.1619 16.7895C21.2766 16.5601 21.3817 16.4432 21.4436 16.3917C21.5057 16.4432 21.6108 16.5602 21.7254 16.7895ZM21.4868 16.3619C21.4868 16.3619 21.4864 16.3621 21.4855 16.3624L21.4868 16.3619ZM21.4018 16.3624C21.4009 16.3621 21.4005 16.3619 21.4005 16.3619L21.4018 16.3624Z" stroke="#212121" stroke-width="2"/>
</g>
<defs>
<clipPath id="clip0_1_6770">
<rect width="43" height="43" fill="white"/>
</clipPath>
</defs>
</svg>
