<svg width="20" height="20" viewBox="0 0 20 20" fill="none" xmlns="http://www.w3.org/2000/svg">
<g id="Props/Border/Corner">
<g id="Rectangle">
<mask id="path-1-inside-1_1_6811" fill="white">
<path d="M0 20L0 10C0 4.47715 4.47715 0 10 0H20V20H0Z"/>
</mask>
<path d="M0 20L0 10C0 4.47715 4.47715 0 10 0H20V20H0Z" fill="#50E3C2"/>
<path d="M-1 20L-1 10C-1 3.92487 3.92487 -1 10 -1V1C5.02944 1 1 5.02944 1 10L1 20H-1ZM20 0V20V0ZM20 20H0H20ZM-1 10C-1 3.92487 3.92487 -1 10 -1H20V1H10C5.02944 1 1 5.02944 1 10H-1Z" fill="#3CCFAE" mask="url(#path-1-inside-1_1_6811)"/>
</g>
<rect id="Rectangle_2" x="19" y="19" width="1" height="1" fill="#3CCFAE"/>
</g>
</svg>
