<?xml version="1.0" encoding="UTF-8" standalone="no"?>
<!-- Created with Inkscape (http://www.inkscape.org/) -->

<svg
   width="30px"
   height="30px"
   viewBox="0 0 7.9375001 7.9374999"
   version="1.1"
   id="svg1"
   xmlns="http://www.w3.org/2000/svg"
   xmlns:svg="http://www.w3.org/2000/svg">
  <defs
     id="defs1" />
	<g
   id="Colours">
		<path
   id="Down"
   class="st0"
   d="m 319.59156,98.901923 c -2.3695,0 -4.34604,-1.677744 -4.81525,-3.906917 h -7.8827 c 0.55718,6.482204 5.99413,11.568234 12.61584,11.568234 6.62169,0 12.06451,-5.08603 12.61583,-11.568234 h -7.71847 c -0.46922,2.235037 -2.44576,3.906917 -4.81525,3.906917 z"
   style="fill:#ffffff;stroke-width:0.058657" />

		<path
   id="Shadow_Down"
   class="st1"
   d="m 322.4068,106.23474 c 5.25513,-1.23192 9.24927,-5.73133 9.71848,-11.239734 h -3.10851 c -0.31085,4.998039 -2.93255,9.233474 -6.60997,11.239734 z"
   style="fill:#dfdfdf;stroke-width:0.058657" />

		<path
   id="Center"
   class="st0"
   d="m 322.49479,93.980144 v 0 c -0.006,0 -0.006,0 0,0 -0.006,-0.357847 -0.0704,-0.698087 -0.18769,-1.014865 -0.41056,-1.102849 -1.47214,-1.883063 -2.71554,-1.883063 -1.24341,0 -2.30499,0.786077 -2.71555,1.883063 -0.1173,0.316778 -0.18182,0.657018 -0.18182,1.014865 0,0 0,0 0,0 h 0.006 c 0,0 0,0 0,0 0,0.357841 0.0645,0.69808 0.18182,1.014862 0.41056,1.102856 1.47215,1.883063 2.71555,1.883063 1.2434,0 2.30498,-0.786077 2.71554,-1.883063 0.1173,-0.310918 0.18182,-0.657021 0.18182,-1.014862 z"
   style="fill:#ffffff;stroke-width:0.058657" />

		<path
   id="Up"
   class="st2"
   d="m 319.59742,89.064223 c 2.3695,0 4.34604,1.67775 4.81525,3.906926 h 7.8827 c -0.55719,-6.48807 -5.99413,-11.574109 -12.6217,-11.574109 -6.62757,0 -12.05866,5.086039 -12.61584,11.568239 h 7.72434 c 0.46921,-2.22917 2.44575,-3.901056 4.81525,-3.901056 z"
   style="fill:#ff1c1c;stroke-width:0.058657" />

		<path
   id="Shadow_Up"
   class="st3"
   d="m 329.01677,92.965279 h 3.27273 c -0.48093,-5.602271 -4.60997,-10.166209 -10,-11.29839 3.74194,1.976924 6.41056,6.253416 6.72727,11.29839 z"
   style="fill:#df1818;stroke-width:0.058657" />

	</g>

	<path
   id="Line"
   d="m 319.67367,81.39704 c 6.62757,0 12.06451,5.086039 12.61583,11.568239 h -7.88269 c -0.46922,-2.22917 -2.44576,-3.90692 -4.81525,-3.90692 -2.3695,0 -4.34604,1.67775 -4.81525,3.90692 h -7.71848 c 0.55718,-6.4822 5.99414,-11.568239 12.61584,-11.568239 z m 2.63343,11.568239 c 0.1173,0.316778 0.18182,0.657018 0.18182,1.014865 0,0 0,0 0,0 h 0.006 c 0,0 0,0 0,0 0,0.357841 -0.0645,0.69808 -0.18182,1.014862 -0.41056,1.102856 -1.47214,1.883063 -2.71554,1.883063 -1.2434,0 -2.30499,-0.786077 -2.71555,-1.883063 -0.1173,-0.316782 -0.18182,-0.657021 -0.18182,-1.014862 0,0 0,0 0,0 h -0.006 c 0,0 0,0 0,0 0,-0.357847 0.0645,-0.698087 0.18182,-1.014865 0.41056,-1.102849 1.47214,-1.883063 2.71555,-1.883063 1.2434,0 2.30498,0.786077 2.71554,1.883063 z m -2.79765,13.603841 c -6.62757,0 -12.06452,-5.08604 -12.61584,-11.568254 h 7.8827 c 0.46921,2.229177 2.44575,3.90693 4.81525,3.90693 2.36949,0 4.34603,-1.677753 4.81525,-3.90693 h 7.72434 c -0.55719,6.476344 -5.99414,11.568254 -12.6217,11.568254 z m 0.0822,-27.588979 c -8.28152,0 -14.99707,6.71686 -14.99707,15.000003 0,8.283146 6.71555,14.999996 14.99707,14.999996 8.28152,0 15.00293,-6.71099 15.00293,-14.999996 0,-8.289014 -6.71554,-15.000003 -15.00293,-15.000003 z"
   style="stroke-width:0.058657" />

</g>
</svg>
