<svg width="40" height="40" viewBox="0 0 40 40" fill="none" xmlns="http://www.w3.org/2000/svg">
<g id="UI/Button/Gear" clip-path="url(#clip0_1_6749)">
<g id="Shape" filter="url(#filter0_d_1_6749)">
<path fill-rule="evenodd" clip-rule="evenodd" d="M36.1562 20C36.1562 17.5104 37.6979 15.5417 40 14.1875C39.5833 12.8021 39.0312 11.4583 38.3542 10.2083C35.7604 10.8854 33.6667 9.875 31.8958 8.10417C30.1354 6.34375 29.5938 4.23958 30.2708 1.64583C29.0208 0.96875 27.6875 0.416667 26.2917 0C24.9375 2.3125 22.5 3.84375 20 3.84375C17.5104 3.84375 15.0625 2.3125 13.7083 0C12.3125 0.416667 10.9792 0.96875 9.72917 1.64583C10.4062 4.23958 9.86458 6.33333 8.10417 8.10417C6.34375 9.86458 4.23958 10.8854 1.65625 10.2083C0.96875 11.4583 0.416667 12.7917 0 14.1875C2.3125 15.5417 3.85417 17.5104 3.85417 20C3.85417 22.4896 2.3125 24.9375 0 26.2917C0.416667 27.6875 0.96875 29.0208 1.64583 30.2708C4.23958 29.5938 6.33333 30.1354 8.09375 31.8958C9.86458 33.6562 10.3958 35.7604 9.71875 38.3542C10.9792 39.0312 12.3021 39.5833 13.6979 40C15.0521 37.6875 17.5 36.1562 19.9896 36.1562C22.4792 36.1562 24.9271 37.6875 26.2812 40C27.6771 39.5833 29.0104 39.0312 30.2604 38.3542C29.5833 35.7604 30.125 33.6667 31.8854 31.8958C33.6458 30.1354 35.75 29.1146 38.3438 29.7917C39.0208 28.5312 39.5729 27.1979 39.9896 25.8125C37.6875 24.4583 36.1562 22.4896 36.1562 20ZM20 30.2396C14.3542 30.2396 9.76042 25.6562 9.76042 20C9.76042 14.3438 14.3438 9.76042 20 9.76042C25.6562 9.76042 30.2396 14.3438 30.2396 20C30.2396 25.6562 25.6562 30.2396 20 30.2396Z" fill="#50E3C2"/>
</g>
</g>
<defs>
<filter id="filter0_d_1_6749" x="-4" y="-2" width="48" height="48" filterUnits="userSpaceOnUse" color-interpolation-filters="sRGB">
<feFlood flood-opacity="0" result="BackgroundImageFix"/>
<feColorMatrix in="SourceAlpha" type="matrix" values="0 0 0 0 0 0 0 0 0 0 0 0 0 0 0 0 0 0 127 0" result="hardAlpha"/>
<feOffset dy="2"/>
<feGaussianBlur stdDeviation="2"/>
<feColorMatrix type="matrix" values="0 0 0 0 0 0 0 0 0 0 0 0 0 0 0 0 0 0 0.1 0"/>
<feBlend mode="normal" in2="BackgroundImageFix" result="effect1_dropShadow_1_6749"/>
<feBlend mode="normal" in="SourceGraphic" in2="effect1_dropShadow_1_6749" result="shape"/>
</filter>
<clipPath id="clip0_1_6749">
<rect width="40" height="40" fill="white"/>
</clipPath>
</defs>
</svg>
